# xmcd
# 
# Track frame offsets:
#     150
#     24883
#     85914
#     110737
# 
# Disc length: 1562
# 
# Revision: 4
# Processed by: cddbd v1.5.2PL0 Copyright (c) Steve Scherf et al.
# Submitted via: fre:ac v1.0.31
# 
DISCID=26061804
DTITLE=北条加蓮 (渕上舞) - THE IDOLM@STER CINDERELLA MASTER 028 北条加蓮
DYEAR=2014
DGENRE=Game
TTITLE0=薄荷 -ハッカ-
TTITLE1=ドラマ「目指せ! シンデレラNO. 1! -北条加蓮編-」
TTITLE2=薄荷 -ハッカ- 　オリジナル・カラオケ
TTITLE3=ボーナス・トラック
EXTD=
EXTT0=
EXTT1=
EXTT2=
EXTT3=
PLAYORDER=
